<?xml version="1.0" encoding="UTF-8"?>
<!--Generator: Apple Native CoreSVG 232.5-->
<!DOCTYPE svg
PUBLIC "-//W3C//DTD SVG 1.1//EN"
       "http://www.w3.org/Graphics/SVG/1.1/DTD/svg11.dtd">
<svg version="1.1" xmlns="http://www.w3.org/2000/svg" xmlns:xlink="http://www.w3.org/1999/xlink" width="72.1924" height="62.4268">
 <g>
  <rect height="62.4268" opacity="0" width="72.1924" x="0" y="0"/>
  <path d="M51.6602 54.3701C51.6602 59.082 55.3223 62.3779 60.4492 62.3779C65.0391 62.3779 71.8506 59.0332 71.8506 49.9512L71.8506 17.9688C71.8506 16.9434 70.9717 16.0645 69.9463 16.0645C68.8721 16.0645 67.9932 16.9434 67.9932 17.9688L67.9932 41.1377C67.9932 42.7979 67.3096 43.8965 65.8447 44.1895L60.8154 45.2148C54.5898 46.5332 51.6602 49.6338 51.6602 54.3701Z" fill="#ffffff" fill-opacity="0.85"/>
  <path d="M28.3203 38.2812C28.3203 43.0176 31.9824 46.3135 37.1094 46.3135C41.6992 46.3135 48.5107 42.9443 48.5107 33.8623L48.5107 1.9043C48.5107 0.854492 47.6318 0 46.6064 0C45.5322 0 44.6533 0.854492 44.6533 1.9043L44.6533 25.0488C44.6533 26.709 43.9697 27.8076 42.5049 28.1006L37.5 29.1504C31.25 30.4443 28.3203 33.5449 28.3203 38.2812Z" fill="#ffffff" fill-opacity="0.85"/>
  <path d="M0 54.3457C0 59.082 3.6377 62.3779 8.78906 62.3779C13.3789 62.3779 20.1904 59.0088 20.1904 49.9268L20.1904 17.9688C20.1904 16.9189 19.3115 16.0645 18.2617 16.0645C17.2119 16.0645 16.333 16.9189 16.333 17.9688L16.333 41.1133C16.333 42.7734 15.625 43.8721 14.1846 44.165L9.15527 45.2148C2.92969 46.5088 0 49.6094 0 54.3457Z" fill="#ffffff" fill-opacity="0.85"/>
 </g>
</svg>
